<svg xmlns="http://www.w3.org/2000/svg" width="45.137" height="70.208" viewBox="0 0 45.137 70.208"><g transform="translate(0 0)"><g transform="translate(0 0)"><path d="M79.19,81.854a5.546,5.546,0,0,0,3.368-1.324c1.389-.982,2.61-1.794,2.61-1.794l.421-.3-.421-.3C85,78.01,66.685,65.113,64.79,63.875A2.642,2.642,0,0,0,62.1,63.49a2.323,2.323,0,0,0-1.179,2.178v4.4l.168.085c.126.085,12.715,8.968,15.158,10.634A5,5,0,0,0,79.19,81.854Z" transform="translate(-60.917 -43.931)" fill="#ec5dec"/><path d="M103.821,66.731c-1.095-.811-40.378-28.613-42.062-29.809l-.547-.384v6.833c0,2.178,1.137,2.989,2.526,4.014,0,0,30.147,21.31,33.894,23.915C93.885,73.948,65.506,93.892,63.7,95.045c-2.147,1.452-2.358,2.392-2.358,4.356v7.345s41.557-30.15,42.441-30.833h0a5.583,5.583,0,0,0,2.358-4.4v-.769A4.757,4.757,0,0,0,103.821,66.731Z" transform="translate(-61.001 -36.538)" fill="#ec5dec"/></g></g></svg>