<?xml version="1.0" ?><!DOCTYPE svg  PUBLIC '-//W3C//DTD SVG 1.1//EN'  'http://www.w3.org/Graphics/SVG/1.1/DTD/svg11.dtd'><svg enable-background="new 0 0 24 24" height="24px" id="Layer_1" version="1.1" viewBox="0 0 24 24" width="24px" xml:space="preserve" xmlns="http://www.w3.org/2000/svg" xmlns:xlink="http://www.w3.org/1999/xlink"><g><g><g><g><path d="M9.8,12.5H3.9c-0.3,0-0.5-0.2-0.5-0.5s0.2-0.5,0.5-0.5h5.9c1,0,1.9-0.9,1.9-1.9c0-1-0.9-1.9-1.9-1.9H3.9      c-0.3,0-0.5-0.2-0.5-0.5s0.2-0.5,0.5-0.5h5.9c1.6,0,2.9,1.3,2.9,2.9C12.7,11.2,11.4,12.5,9.8,12.5z"/></g><g><path d="M9.8,17.3H3.9c-0.3,0-0.5-0.2-0.5-0.5s0.2-0.5,0.5-0.5h5.9c1,0,1.9-0.9,1.9-1.9c0-1.1-0.9-1.9-1.9-1.9H3.9      c-0.3,0-0.5-0.2-0.5-0.5s0.2-0.5,0.5-0.5h5.9c1.6,0,2.9,1.3,2.9,2.9C12.7,16,11.4,17.3,9.8,17.3z"/></g></g><g><path d="M17,17.3c-0.9,0-1.8-0.3-2.5-1c-1.4-1.4-1.4-3.7,0-5.1c0.7-0.7,1.6-1.1,2.5-1.1h0c1,0,1.9,0.4,2.5,1.1     c0.6,0.6,0.9,1.3,1,2.1c0,0.1,0,0.3-0.1,0.4c-0.1,0.1-0.2,0.2-0.4,0.2h-4c-0.3,0-0.5-0.2-0.5-0.5s0.2-0.5,0.5-0.5h3.3     c-0.1-0.4-0.3-0.7-0.6-0.9c-1-1-2.7-1-3.7,0c-1,1-1,2.7,0,3.7c1,1,2.7,1,3.7,0c0.2-0.2,0.3-0.3,0.4-0.6c0.1-0.2,0.4-0.3,0.7-0.2     c0.2,0.1,0.3,0.4,0.2,0.7c-0.2,0.3-0.4,0.6-0.6,0.8C18.8,17,17.9,17.3,17,17.3z"/></g><g><path d="M3.9,17.3c-0.3,0-0.5-0.2-0.5-0.5V7.2c0-0.3,0.2-0.5,0.5-0.5s0.5,0.2,0.5,0.5v9.6C4.4,17.1,4.2,17.3,3.9,17.3z"/></g><g><path d="M18.9,9.4h-3.8c-0.3,0-0.5-0.2-0.5-0.5s0.2-0.5,0.5-0.5h3.8c0.3,0,0.5,0.2,0.5,0.5S19.1,9.4,18.9,9.4z"/></g></g><g><path d="M19.7,23.5H4.3c-2.1,0-3.8-1.7-3.8-3.8V4.3c0-2.1,1.7-3.8,3.8-3.8h15.3c2.1,0,3.8,1.7,3.8,3.8v15.3    C23.5,21.8,21.8,23.5,19.7,23.5z M4.3,1.5c-1.6,0-2.8,1.3-2.8,2.8v15.3c0,1.6,1.3,2.8,2.8,2.8h15.3c1.6,0,2.8-1.3,2.8-2.8V4.3    c0-1.6-1.3-2.8-2.8-2.8H4.3z"/></g></g></svg>