<svg xmlns="http://www.w3.org/2000/svg" width="70" height="70" viewBox="0 0 70 70"><g transform="translate(-1.522 -1.522)"><path d="M36.522,1.522a35.2,35.2,0,0,0-35,35A34.556,34.556,0,0,0,7.609,56.3L3.652,68.174a1.338,1.338,0,0,0,.3,1.522,2.012,2.012,0,0,0,1.826.3l12.174-3.957a33.909,33.909,0,0,0,18.565,5.478,35.2,35.2,0,0,0,35-35A35.2,35.2,0,0,0,36.522,1.522Zm21,49.3c-.913,2.739-4.565,5.174-7.609,5.783-.609,0-1.217.3-2.13.3-2.435,0-5.478-.913-10.348-2.739-6.087-2.435-12.174-7.913-17.043-14.913l-.3-.3c-1.826-2.435-4.565-6.7-4.565-11.261a13.5,13.5,0,0,1,3.652-9.13,6.194,6.194,0,0,1,4.565-1.826h1.217c1.522,0,2.435.609,3.348,2.435l.609,1.217c.913,2.13,2.13,5.478,2.435,6.087a2.753,2.753,0,0,1,0,3.043,6.367,6.367,0,0,1-1.217,1.826c-.3.3-.609.609-.609.913l-.913.913v.3a27.858,27.858,0,0,0,5.174,6.391,24.7,24.7,0,0,0,7,4.565h.3c.3,0,.609.3.609,0,.609-.609,1.217-1.826,2.13-2.739l.3-.3A3.607,3.607,0,0,1,46.87,39.87a1.83,1.83,0,0,1,1.217.3c.3,0,.913.3,6.7,3.348l.609.3c.913.3,1.522.609,1.826,1.522C58.435,45.957,58.13,48.7,57.522,50.826Z" fill="#ec5dec"/></g></svg>