<svg xmlns="http://www.w3.org/2000/svg" width="70" height="69.996" viewBox="0 0 70 69.996"><g transform="translate(-5 -5)"><path d="M40,5C20.672,5,5,21.063,5,40.891A35.822,35.822,0,0,0,28.938,74.938c1.75.328,2.391-.781,2.391-1.734,0-.859-.031-3.109-.047-6.109-9.734,2.172-11.8-4.812-11.8-4.812-1.594-4.141-3.891-5.25-3.891-5.25-3.172-2.234.234-2.187.234-2.187,3.516.25,5.359,3.7,5.359,3.7,3.125,5.484,8.188,3.906,10.188,2.984a7.71,7.71,0,0,1,2.219-4.8C25.828,55.828,17.656,52.75,17.656,39a14.047,14.047,0,0,1,3.594-9.625,13.212,13.212,0,0,1,.344-9.5s2.938-.969,9.625,3.672a32.533,32.533,0,0,1,17.531,0c6.688-4.641,9.609-3.672,9.609-3.672a13.212,13.212,0,0,1,.344,9.5A14.1,14.1,0,0,1,62.3,39c0,13.781-8.187,16.813-15.984,17.7,1.25,1.109,2.375,3.3,2.375,6.641,0,4.8-.047,8.672-.047,9.844,0,.953.625,2.078,2.406,1.719A35.753,35.753,0,0,0,75,40.891C75,21.063,59.328,5,40,5Z" fill="#ec5dec" fill-rule="evenodd"/></g></svg>