<svg xmlns="http://www.w3.org/2000/svg" width="70" height="69.999" viewBox="0 0 70 69.999"><g transform="translate(-5.264 -7.398)"><circle cx="6.26" cy="6.26" r="6.26" transform="translate(33.719 36.422)" fill="#ec5dec"/><path d="M47.8,27.317H32.154a7.775,7.775,0,0,0-5.549,1.992,7.775,7.775,0,0,0-1.992,5.549v15.65A7.842,7.842,0,0,0,26.748,56.2,8.021,8.021,0,0,0,32.3,58.19H47.8A7.775,7.775,0,0,0,53.353,56.2a7.288,7.288,0,0,0,2.134-5.549V35A8.021,8.021,0,0,0,53.5,29.451,7.618,7.618,0,0,0,47.8,27.317Zm-7.825,25.04a9.675,9.675,0,1,1,0-19.349,9.676,9.676,0,1,1,0,19.349Zm10.1-17.5a2.276,2.276,0,1,1,2.276-2.276A2.247,2.247,0,0,1,50.081,34.857Z" fill="#ec5dec"/><path d="M40.264,7.4a35,35,0,1,0,35,35A34.974,34.974,0,0,0,40.264,7.4ZM58.9,50.65a11.278,11.278,0,0,1-3.13,8.11A11.072,11.072,0,0,1,47.8,61.747H32.3a11.072,11.072,0,0,1-7.967-2.988,10.719,10.719,0,0,1-3.13-8.11V35c0-6.545,4.411-11.1,11.1-11.1h15.65A10.492,10.492,0,0,1,58.9,35V50.65Z" fill="#ec5dec"/></g></svg>