<svg xmlns="http://www.w3.org/2000/svg" width="65.84" height="71" viewBox="0 0 65.84 71"><path d="M56.6,33.55a5.661,5.661,0,0,1,1.45,0,5.118,5.118,0,0,0,.07-2.787c-.35-1.689-.817-2.713-1.788-2.553s-1.009,1.384-.659,3.074a5.756,5.756,0,0,0,.93,2.266Zm-8.342,1.337c.7.311,1.123.515,1.289.337.108-.112.076-.325-.087-.6a4.084,4.084,0,0,0-1.8-1.47,4.834,4.834,0,0,0-4.766.58c-.467.346-.9.828-.846,1.118.023.095.09.166.254.189a29.777,29.777,0,0,1,3.267-.74,5.6,5.6,0,0,1,2.689.589Zm-1.4.811a3.281,3.281,0,0,0-1.724.731,1.135,1.135,0,0,0-.443.7l.07.169.149.059a2.733,2.733,0,0,0,.665-.189,5.684,5.684,0,0,1,2.917-.308c.452.053.671.083.767-.077a.267.267,0,0,0-.023-.3,2.618,2.618,0,0,0-2.374-.787Zm6.927,2.976a1.1,1.1,0,0,0,1.511-.266,1.133,1.133,0,0,0-.715-1.382,1.1,1.1,0,0,0-1.511.266A1.133,1.133,0,0,0,53.789,38.674Zm3.952-3.509c-.5-.009-.916.547-.925,1.245s.382,1.266.881,1.275.916-.547.927-1.242-.385-1.266-.884-1.278ZM24.188,47.718c-.122-.157-.327-.109-.525-.062a1.859,1.859,0,0,1-.467.065,1.008,1.008,0,0,1-.852-.438,1.643,1.643,0,0,1,.035-1.491l.117-.272c.4-.911,1.073-2.441.321-3.9a3.4,3.4,0,0,0-2.6-1.923,3.313,3.313,0,0,0-2.867,1.05,4.219,4.219,0,0,0-1.062,3.52c.079.216.2.278.289.29.19.027.467-.112.642-.592l.05-.154a4.652,4.652,0,0,1,.458-1.095,2.006,2.006,0,0,1,1.269-.88,1.983,1.983,0,0,1,1.511.289,2.01,2.01,0,0,1,.744,2.4,5.644,5.644,0,0,0-.388,2.13,2.112,2.112,0,0,0,1.861,2.189,1.585,1.585,0,0,0,1.5-.763.331.331,0,0,0-.029-.37v0Zm46.156-2.769c-.029-.109-.228-.846-.5-1.734l-.554-1.509a5.569,5.569,0,0,0,.968-3.994,5.079,5.079,0,0,0-1.447-2.852,11.6,11.6,0,0,0-5.1-2.568l-1.3-.367c-.006-.053-.067-3.115-.125-4.429a15.252,15.252,0,0,0-.572-3.89,10.439,10.439,0,0,0-2.654-4.813c3.237-3.408,5.259-7.165,5.253-10.387-.009-6.2-7.5-8.076-16.73-4.189l-1.954.843q-1.791-1.788-3.587-3.571C31.509-7.839-1.394,29.323,9.124,38.352l2.3,1.976a11.646,11.646,0,0,0-.642,5.3,10.5,10.5,0,0,0,3.552,6.7A10.713,10.713,0,0,0,21.3,55.187c4.092,9.585,13.446,15.466,24.412,15.8,11.766.355,21.641-5.254,25.783-15.33a21.457,21.457,0,0,0,1.417-6.706c0-2.828-1.572-4-2.572-4ZM22.211,52.492a5.58,5.58,0,0,1-1.091.08,8.54,8.54,0,0,1-7.773-7.2c-.423-4.26,1.721-7.538,5.512-8.313a6.386,6.386,0,0,1,1.6-.118c2.126.118,5.259,1.775,5.973,6.482.633,4.165-.373,8.41-4.217,9.076ZM18.244,34.506a9.021,9.021,0,0,0-5.717,3.7,15.735,15.735,0,0,1-2.43-2.378c-2.033-3.92,2.217-11.543,5.186-15.848C22.625,9.346,34.11,1.293,39.433,2.754,40.3,3,43.161,6.375,43.161,6.375a74.785,74.785,0,0,0-10.249,7.177c-6.644,5.2-11.664,12.753-14.671,20.954ZM55.539,50.9a.213.213,0,0,0,.122-.21.2.2,0,0,0-.071-.134.194.194,0,0,0-.144-.043,24.483,24.483,0,0,1-10.824-1.121c.572-1.89,2.094-1.207,4.4-1.018a31.682,31.682,0,0,0,10.617-1.166A24.267,24.267,0,0,0,67.576,43.2a16.591,16.591,0,0,1,1.108,3.84,1.818,1.818,0,0,1,1.164.216c.5.314.866.964.615,2.648a14.746,14.746,0,0,1-4.037,8.047,16.64,16.64,0,0,1-4.85,3.68,20.315,20.315,0,0,1-3.165,1.361c-8.336,2.766-16.87-.275-19.62-6.8a10.7,10.7,0,0,1-.554-1.544,13.707,13.707,0,0,1,2.937-12.718,1.168,1.168,0,0,0,.385-.757,1.36,1.36,0,0,0-.3-.719c-1.088-1.6-4.859-4.337-4.1-9.626.542-3.8,3.815-6.476,6.863-6.316l.773.044c1.321.08,2.473.251,3.564.3a7.049,7.049,0,0,0,5.4-1.831,4.152,4.152,0,0,1,2.065-1.186,2.491,2.491,0,0,1,.787-.077,2.576,2.576,0,0,1,1.33.432c1.555,1.05,1.773,3.594,1.855,5.458.047,1.065.172,3.633.216,4.372.1,1.686.534,1.923,1.417,2.219.5.169.96.293,1.639.485a9.2,9.2,0,0,1,4.045,1.95,2.587,2.587,0,0,1,.738,1.47c.245,1.8-1.371,4.02-5.652,6.038A28.325,28.325,0,0,1,47.921,46.5l-1.374-.157c-3.138-.429-4.926,3.689-3.045,6.511,1.213,1.819,4.521,3,7.825,3,7.583,0,13.411-3.287,15.578-6.13l.175-.251c.1-.163.018-.251-.117-.16-1.77,1.231-9.637,6.121-18.054,4.647a10.919,10.919,0,0,1-1.954-.538,3.531,3.531,0,0,1-2.479-2.636c6.79,2.133,11.063.115,11.063.115Zm-10.757-1.29,0,0v-.006ZM31.792,19.939a31.082,31.082,0,0,1,8.7-7.221.115.115,0,0,1,.152.157,8.443,8.443,0,0,0-.808,2,.119.119,0,0,0,.048.123.115.115,0,0,0,.13,0,16.75,16.75,0,0,1,7.636-2.736.122.122,0,0,1,.079.219,6.559,6.559,0,0,0-1.2,1.222.12.12,0,0,0-.012.123.117.117,0,0,0,.1.067A14.762,14.762,0,0,1,53,15.6c.117.068.035.3-.1.272a25.557,25.557,0,0,0-11.562.03,26.341,26.341,0,0,0-9.386,4.216.12.12,0,0,1-.16-.177Z" transform="translate(-7.076 -0.001)" fill="#ec5dec"/></svg>