<svg xmlns="http://www.w3.org/2000/svg" width="70" height="71" viewBox="0 0 70 71"><path d="M76.154,19.615H33.077A13.559,13.559,0,0,0,19.615,33.269V76.962A13.559,13.559,0,0,0,33.077,90.615H76.154A13.559,13.559,0,0,0,89.615,76.962V33.269A13.559,13.559,0,0,0,76.154,19.615Zm8.077,57.346a8.135,8.135,0,0,1-8.077,8.192H33.077A8.135,8.135,0,0,1,25,76.962V33.269a8.135,8.135,0,0,1,8.077-8.192H76.154a8.135,8.135,0,0,1,8.077,8.192Z" transform="translate(-19.615 -19.615)" fill="#ec5dec"/><path d="M93.846,63.231a8.135,8.135,0,0,1-8.077-8.192,2.693,2.693,0,1,0-5.385,0V82.346a8.078,8.078,0,1,1-8.077-8.192,2.731,2.731,0,0,0,0-5.462A13.655,13.655,0,1,0,85.769,82.346V65.962a13.124,13.124,0,0,0,8.077,2.731,2.731,2.731,0,0,0,0-5.462Z" transform="translate(-42.692 -38.654)" fill="#ec5dec"/></svg>